<svg xmlns="http://www.w3.org/2000/svg" width="53.202" height="69.933" viewBox="0 0 53.202 69.933">
  <g id="Survey_icon" transform="translate(-79.744 -23.5)">
    <line id="Line_2" data-name="Line 2" x2="4.999" transform="translate(123.221 33.582)" fill="none" stroke="#75580b" stroke-linecap="round" stroke-linejoin="round" stroke-width="3"/>
    <path id="Path_1" data-name="Path 1" d="M397.066,82.7a3.243,3.243,0,0,1,3.226,3.263" transform="translate(-268.846 -49.114)" fill="none" stroke="#75580b" stroke-linecap="round" stroke-linejoin="round" stroke-width="3"/>
    <line id="Line_3" data-name="Line 3" y2="51.823" transform="translate(131.446 36.845)" fill="none" stroke="#75580b" stroke-linecap="round" stroke-linejoin="round" stroke-width="3"/>
    <path id="Path_2" data-name="Path 2" d="M400.293,453.047a3.246,3.246,0,0,1-3.226,3.265" transform="translate(-268.847 -364.379)" fill="none" stroke="#75580b" stroke-linecap="round" stroke-linejoin="round" stroke-width="3"/>
    <line id="Line_4" data-name="Line 4" x1="43.75" transform="translate(84.47 91.933)" fill="none" stroke="#75580b" stroke-linecap="round" stroke-linejoin="round" stroke-width="3"/>
    <path id="Path_3" data-name="Path 3" d="M84.47,456.312a3.247,3.247,0,0,1-3.226-3.265" transform="translate(0 -364.379)" fill="none" stroke="#75580b" stroke-linecap="round" stroke-linejoin="round" stroke-width="3"/>
    <line id="Line_5" data-name="Line 5" y1="51.823" transform="translate(81.244 36.845)" fill="none" stroke="#75580b" stroke-linecap="round" stroke-linejoin="round" stroke-width="3"/>
    <path id="Path_4" data-name="Path 4" d="M81.244,85.96A3.244,3.244,0,0,1,84.47,82.7" transform="translate(0 -49.115)" fill="none" stroke="#75580b" stroke-linecap="round" stroke-linejoin="round" stroke-width="3"/>
    <line id="Line_6" data-name="Line 6" x2="4.31" transform="translate(84.47 33.582)" fill="none" stroke="#75580b" stroke-linecap="round" stroke-linejoin="round" stroke-width="3"/>
    <path id="Path_5" data-name="Path 5" d="M295.3,46.561h-8.31v-.71" transform="translate(-175.144 -17.75)" fill="none" stroke="#75580b" stroke-linecap="round" stroke-linejoin="round" stroke-width="3"/>
    <path id="Path_6" data-name="Path 6" d="M269.48,28.1a3.081,3.081,0,0,0-3.06-3.1" transform="translate(-157.633 0)" fill="none" stroke="#75580b" stroke-linecap="round" stroke-linejoin="round" stroke-width="3"/>
    <line id="Line_7" data-name="Line 7" x1="4.879" transform="translate(103.909 25)" fill="none" stroke="#75580b" stroke-linecap="round" stroke-linejoin="round" stroke-width="3"/>
    <path id="Path_7" data-name="Path 7" d="M216.062,25a3.086,3.086,0,0,0-3.068,3.1" transform="translate(-112.153)" fill="none" stroke="#75580b" stroke-linecap="round" stroke-linejoin="round" stroke-width="3"/>
    <path id="Path_8" data-name="Path 8" d="M165.483,45.851v.71h-8.3" transform="translate(-64.642 -17.75)" fill="none" stroke="#75580b" stroke-linecap="round" stroke-linejoin="round" stroke-width="3"/>
    <path id="Path_9" data-name="Path 9" d="M139.646,50.625a3.085,3.085,0,0,0-3.064,3.105" transform="translate(-47.107 -21.814)" fill="none" stroke="#75580b" stroke-linecap="round" stroke-linejoin="round" stroke-width="3"/>
    <path id="Path_10" data-name="Path 10" d="M136.582,71.5v6.6h33.746V71.5" transform="translate(-47.107 -39.586)" fill="none" stroke="#75580b" stroke-linecap="round" stroke-linejoin="round" stroke-width="3"/>
    <path id="Path_11" data-name="Path 11" d="M345.923,53.73a3.081,3.081,0,0,0-3.064-3.105" transform="translate(-222.702 -21.814)" fill="none" stroke="#75580b" stroke-linecap="round" stroke-linejoin="round" stroke-width="3"/>
    <g id="Group_2" data-name="Group 2" transform="translate(89.626 51.134)">
      <line id="Line_8" data-name="Line 8" x2="2.769" y2="2.576" transform="translate(0 3.045)" fill="none" stroke="#75580b" stroke-linecap="round" stroke-linejoin="round" stroke-width="3"/>
      <line id="Line_9" data-name="Line 9" x1="5.086" y2="5.621" transform="translate(2.769)" fill="none" stroke="#75580b" stroke-linecap="round" stroke-linejoin="round" stroke-width="3"/>
    </g>
    <line id="Line_10" data-name="Line 10" x2="20.759" transform="translate(102.31 54.519)" fill="none" stroke="#75580b" stroke-linecap="round" stroke-linejoin="round" stroke-width="3"/>
    <line id="Line_11" data-name="Line 11" x2="20.759" transform="translate(102.31 79.671)" fill="none" stroke="#75580b" stroke-linecap="round" stroke-linejoin="round" stroke-width="3"/>
    <line id="Line_12" data-name="Line 12" x2="20.759" transform="translate(102.31 67.278)" fill="none" stroke="#75580b" stroke-linecap="round" stroke-linejoin="round" stroke-width="3"/>
  </g>
</svg>
