<svg xmlns="http://www.w3.org/2000/svg" width="23.701" height="21" viewBox="0 0 23.701 21">
  <g id="home-svgrepo-com_1_" data-name="home-svgrepo-com (1)" transform="translate(0 -1.504)">
    <g id="c14_house" transform="translate(0 1.504)">
      <path id="Path_12" data-name="Path 12" d="M3.588,22.423a.492.492,0,0,0,.5.53l5.974-.007.009-4.9s-.084-.806.7-.806h2.48a.769.769,0,0,1,.869.806l-.011,4.88h5.848a.613.613,0,0,0,.628-.659V13.244L12.337,5.913,3.588,13.245S3.588,22.423,3.588,22.423Z" transform="translate(-0.366 -1.953)" fill="#75580b"/>
      <path id="Path_13" data-name="Path 13" d="M0,12.113s.742,1.369,2.363,0l9.682-8.191,9.077,8.14c1.875,1.353,2.578,0,2.578,0L12.045,1.5Z" transform="translate(0 -1.504)" fill="#75580b"/>
      <path id="Path_14" data-name="Path 14" d="M23.008,4.175H20.674l.01,2.832L23.008,8.98Z" transform="translate(-2.107 -1.776)" fill="#75580b"/>
    </g>
  </g>
</svg>
