<svg xmlns="http://www.w3.org/2000/svg" width="54.912" height="60.39" viewBox="0 0 54.912 60.39">
  <path id="Notification_icon" d="M36.921,56.836c0,.026.008.049.008.077a5.473,5.473,0,1,1-10.947,0c0-.026.007-.049.007-.077C8.485,56.355,4,53.5,4,50.049a3.751,3.751,0,0,1,1.621-3.012C13.9,37.818,16.355,40.37,16.355,26.715c0-9.1.372-17.451,11.337-18.954a4.1,4.1,0,1,1,7.529,0c10.965,1.5,11.337,9.85,11.337,18.954,0,13.7,2.471,11.083,10.807,20.4a3.706,3.706,0,0,1,1.549,2.934C58.912,53.5,54.309,56.353,36.921,56.836Zm-5.465,2.822a2.74,2.74,0,0,0,2.737-2.743c0-.008,0-.016,0-.025-.894.012-1.779.026-2.735.026s-1.84-.014-2.735-.026c0,.008,0,.016,0,.025A2.74,2.74,0,0,0,31.456,59.658Zm0-54.907a1.372,1.372,0,1,0,1.369,1.371A1.368,1.368,0,0,0,31.456,4.752ZM55.625,49.24s-2.089-2.353-5.516-5.469c-4.679-4.263-6.3-6.283-6.3-17.056,0-10.521-.574-16.474-12.355-16.474S19.1,16.194,19.1,26.715c0,10.774-1.62,12.8-6.3,17.06-3.359,3.06-5.472,5.412-5.472,5.412-.582.463-.582.732-.582.862,0,.169.281,4.123,24.711,4.123s24.711-3.954,24.711-4.123C56.167,49.939,56.167,49.682,55.625,49.24Z" transform="translate(-4 -2.01)" fill="#75580b" fill-rule="evenodd"/>
</svg>
